<?xml version="1.0" encoding="UTF-8" standalone="no"?>
<svg
   xmlns:dc="http://purl.org/dc/elements/1.1/"
   xmlns:cc="http://creativecommons.org/ns#"
   xmlns:rdf="http://www.w3.org/1999/02/22-rdf-syntax-ns#"
   xmlns:svg="http://www.w3.org/2000/svg"
   xmlns="http://www.w3.org/2000/svg"
   xmlns:sodipodi="http://sodipodi.sourceforge.net/DTD/sodipodi-0.dtd"
   xmlns:inkscape="http://www.inkscape.org/namespaces/inkscape"
   width="210mm"
   height="210mm"
   viewBox="0 0 210 210"
   version="1.1"
   id="svg8"
   inkscape:version="1.0.1 (3bc2e813f5, 2020-09-07, custom)"
   sodipodi:docname="masthead-lg.svg"
   inkscape:export-filename="/home/gbryant/Nextcloud/Design Work/Heavy Element/he-next/he-next.png"
   inkscape:export-xdpi="25.4"
   inkscape:export-ydpi="25.4">
  <defs
     id="defs2" />
  <sodipodi:namedview
     id="base"
     pagecolor="#ffffff"
     bordercolor="#666666"
     borderopacity="1.0"
     inkscape:pageopacity="0.0"
     inkscape:pageshadow="2"
     inkscape:zoom="1.979899"
     inkscape:cx="370.07432"
     inkscape:cy="458.95917"
     inkscape:document-units="mm"
     inkscape:current-layer="layer1"
     inkscape:document-rotation="0"
     showgrid="false"
     inkscape:window-width="2560"
     inkscape:window-height="1403"
     inkscape:window-x="0"
     inkscape:window-y="0"
     inkscape:window-maximized="1"
     inkscape:pagecheckerboard="true" />
  <metadata
     id="metadata5">
    <rdf:RDF>
      <cc:Work
         rdf:about="">
        <dc:format>image/svg+xml</dc:format>
        <dc:type
           rdf:resource="http://purl.org/dc/dcmitype/StillImage" />
        <dc:title></dc:title>
      </cc:Work>
    </rdf:RDF>
  </metadata>
  <g
     inkscape:label="Layer 1"
     inkscape:groupmode="layer"
     id="layer1">
    <g
       id="g886"
       transform="translate(0,-87.420807)"
       style="fill:#000000">
      <path
         style="color:#000000;font-style:normal;font-variant:normal;font-weight:normal;font-stretch:normal;font-size:medium;line-height:normal;font-family:sans-serif;font-variant-ligatures:normal;font-variant-position:normal;font-variant-caps:normal;font-variant-numeric:normal;font-variant-alternates:normal;font-variant-east-asian:normal;font-feature-settings:normal;font-variation-settings:normal;text-indent:0;text-align:start;text-decoration:none;text-decoration-line:none;text-decoration-style:solid;text-decoration-color:#000000;letter-spacing:normal;word-spacing:normal;text-transform:none;writing-mode:lr-tb;direction:ltr;text-orientation:mixed;dominant-baseline:auto;baseline-shift:baseline;text-anchor:start;white-space:normal;shape-padding:0;shape-margin:0;inline-size:0;clip-rule:nonzero;display:inline;overflow:visible;visibility:visible;isolation:auto;mix-blend-mode:normal;color-interpolation:sRGB;color-interpolation-filters:linearRGB;solid-color:#000000;solid-opacity:1;vector-effect:none;fill:#000000;fill-opacity:1;fill-rule:nonzero;stroke:none;stroke-width:12;stroke-linecap:square;stroke-linejoin:miter;stroke-miterlimit:4;stroke-dasharray:none;stroke-dashoffset:0;stroke-opacity:1;color-rendering:auto;image-rendering:auto;shape-rendering:auto;text-rendering:auto;enable-background:accumulate;stop-color:#000000;stop-opacity:1;opacity:1"
         d="M 14.990234 102.41016 L 14.990234 108.41016 L 14.990234 282.43164 L 195.00977 282.43164 L 195.00977 102.41016 L 14.990234 102.41016 z M 26.990234 114.41016 L 183.00977 114.41016 L 183.00977 270.43164 L 26.990234 270.43164 L 26.990234 114.41016 z "
         id="path2141" />
      <g
         aria-label="hE"
         id="text837"
         style="font-style:normal;font-weight:normal;font-size:96.4878px;line-height:1.25;font-family:sans-serif;letter-spacing:0px;word-spacing:0px;fill:#000000;fill-opacity:1;stroke:none;stroke-width:1.00508">
        <path
           d="M 98.342363,225.37105 H 85.412998 v -28.36742 q 0,-5.98224 -2.219219,-8.78039 -2.21922,-2.89463 -6.271707,-2.89463 -1.736781,0 -3.666537,0.7719 -1.929756,0.77191 -3.666536,2.21922 -1.736781,1.35083 -3.184098,3.28059 -1.447317,1.92975 -2.122731,4.24546 v 29.52527 H 51.352804 v -70.4361 H 64.28217 v 29.23581 q 2.798146,-4.92088 7.526048,-7.52605 4.82439,-2.70166 10.613658,-2.70166 4.920878,0 8.008488,1.73678 3.087609,1.64029 4.82439,4.43844 1.73678,2.79815 2.412195,6.36819 0.675414,3.57005 0.675414,7.33308 z"
           style="font-style:normal;font-variant:normal;font-weight:bold;font-stretch:normal;font-size:96.4878px;font-family:Raleway;-inkscape-font-specification:'Raleway Bold';stroke-width:1.00508;fill:#000000"
           id="path2109" />
        <path
           d="m 158.45409,213.69602 v 11.67503 H 110.8856 v -68.50634 h 46.7001 v 11.67502 h -33.38478 v 16.49942 h 28.05756 l 0.79229,10.80663 h -28.84985 v 17.85024 z"
           style="font-style:normal;font-variant:normal;font-weight:bold;font-stretch:normal;font-size:96.4878px;font-family:Raleway;-inkscape-font-specification:'Raleway Bold';fill:#000000;stroke-width:1.00508"
           id="path2111"
           sodipodi:nodetypes="ccccccccccccc" />
      </g>
      <g
         aria-label="Heavy Element"
         id="text841"
         style="font-style:normal;font-weight:normal;font-size:10.5833px;line-height:1.25;font-family:sans-serif;letter-spacing:0px;word-spacing:0px;fill:#000000;fill-opacity:1;stroke:none;stroke-width:0.264583">
        <path
           d="m 73.451255,240.88913 v 7.51414 h -1.449912 v -3.20674 h -3.407822 v 3.20674 h -1.460496 v -7.51414 h 1.460496 v 3.03741 h 3.407822 v -3.03741 z"
           style="font-style:normal;font-variant:normal;font-weight:bold;font-stretch:normal;font-family:Raleway;-inkscape-font-specification:'Raleway Bold';stroke-width:0.264583;fill:#000000"
           id="path2114" />
        <path
           d="m 77.377628,248.50911 q -0.666748,0 -1.206496,-0.22225 -0.539748,-0.23283 -0.920747,-0.62442 -0.380999,-0.39158 -0.592665,-0.91016 -0.201083,-0.51858 -0.201083,-1.09008 0,-0.59266 0.201083,-1.11125 0.201083,-0.52916 0.582082,-0.92074 0.380998,-0.40217 0.920747,-0.635 0.550331,-0.23283 1.227662,-0.23283 0.677332,0 1.206497,0.23283 0.539748,0.23283 0.910163,0.62441 0.380999,0.39159 0.571499,0.91017 0.201082,0.51858 0.201082,1.07949 0,0.13759 -0.01058,0.26459 0,0.127 -0.02117,0.21166 h -4.286236 q 0.03175,0.32808 0.158749,0.58208 0.127,0.254 0.328083,0.43392 0.201082,0.17991 0.455082,0.27516 0.253999,0.0952 0.529165,0.0952 0.423332,0 0.793747,-0.20108 0.380999,-0.21166 0.518582,-0.55033 l 1.217079,0.33867 q -0.306915,0.63499 -0.984247,1.04774 -0.666748,0.40217 -1.598078,0.40217 z m 1.439329,-3.34433 q -0.05292,-0.62441 -0.465665,-0.99483 -0.402166,-0.38099 -0.984247,-0.38099 -0.285749,0 -0.539748,0.10583 -0.243416,0.0952 -0.433916,0.27516 -0.190499,0.17992 -0.317499,0.43392 -0.116416,0.254 -0.137583,0.56091 z"
           style="font-style:normal;font-variant:normal;font-weight:bold;font-stretch:normal;font-family:Raleway;-inkscape-font-specification:'Raleway Bold';stroke-width:0.264583;fill:#000000"
           id="path2116" />
        <path
           d="m 82.658684,248.50911 q -0.402165,0 -0.751414,-0.127 -0.349249,-0.13758 -0.603248,-0.37042 -0.253999,-0.24341 -0.402166,-0.56091 -0.137582,-0.3175 -0.137582,-0.6985 0,-0.39158 0.169332,-0.71966 0.179916,-0.33867 0.486832,-0.5715 0.317499,-0.23284 0.751414,-0.35983 0.433916,-0.13759 0.952497,-0.13759 0.370416,0 0.719665,0.0635 0.359832,0.0635 0.634998,0.17992 v -0.3175 q 0,-0.55033 -0.317499,-0.84666 -0.306916,-0.29634 -0.920747,-0.29634 -0.444499,0 -0.867831,0.15875 -0.423332,0.15875 -0.867831,0.46567 l -0.433915,-0.89958 q 1.068913,-0.70908 2.30716,-0.70908 1.195912,0 1.852077,0.59266 0.666748,0.58208 0.666748,1.69333 v 1.72508 q 0,0.22225 0.07408,0.3175 0.08467,0.0953 0.264582,0.10583 v 1.20649 q -0.359832,0.0741 -0.624414,0.0741 -0.402166,0 -0.624415,-0.17992 -0.211666,-0.17991 -0.264582,-0.47625 l -0.03175,-0.30691 q -0.370416,0.48683 -0.899581,0.74083 -0.529165,0.254 -1.132413,0.254 z m 0.402166,-1.03717 q 0.359832,0 0.677331,-0.127 0.328082,-0.127 0.507998,-0.33866 0.232833,-0.17992 0.232833,-0.40217 v -0.63499 q -0.254,-0.0952 -0.550332,-0.14817 -0.296332,-0.0635 -0.571498,-0.0635 -0.550332,0 -0.899581,0.254 -0.349248,0.24341 -0.349248,0.62441 0,0.35984 0.275165,0.60325 0.275166,0.23283 0.677332,0.23283 z"
           style="font-style:normal;font-variant:normal;font-weight:bold;font-stretch:normal;font-family:Raleway;-inkscape-font-specification:'Raleway Bold';stroke-width:0.264583;fill:#000000"
           id="path2118" />
        <path
           d="m 88.56414,248.40327 -2.042577,-5.54564 h 1.460495 l 1.407579,4.39206 1.418162,-4.39206 h 1.333496 l -2.042577,5.54564 z"
           style="font-style:normal;font-variant:normal;font-weight:bold;font-stretch:normal;font-family:Raleway;-inkscape-font-specification:'Raleway Bold';stroke-width:0.264583;fill:#000000"
           id="path2120" />
        <path
           d="m 92.998539,249.48277 q 0.179916,0.0529 0.349249,0.0741 0.169333,0.0318 0.285749,0.0318 0.137583,0 0.253999,-0.0529 0.116417,-0.0529 0.211666,-0.1905 0.09525,-0.127 0.1905,-0.35983 0.09525,-0.23284 0.201083,-0.58209 l -2.190743,-5.54564 h 1.460495 l 1.502828,4.31798 1.333496,-4.31798 h 1.333496 l -2.328326,6.64631 q -0.201083,0.58208 -0.687914,0.95249 -0.486832,0.37042 -1.206497,0.37042 -0.169332,0 -0.349248,-0.0318 -0.169333,-0.0212 -0.359833,-0.0847 z"
           style="font-style:normal;font-variant:normal;font-weight:bold;font-stretch:normal;font-family:Raleway;-inkscape-font-specification:'Raleway Bold';stroke-width:0.264583;fill:#000000"
           id="path2122" />
        <path
           d="m 106.31232,247.1227 v 1.28057 h -5.21757 v -7.51414 h 5.12232 v 1.28058 h -3.66183 v 1.80975 h 3.16441 v 1.18532 h -3.16441 v 1.95792 z"
           style="font-style:normal;font-variant:normal;font-weight:bold;font-stretch:normal;font-family:Raleway;-inkscape-font-specification:'Raleway Bold';stroke-width:0.264583;fill:#000000"
           id="path2124" />
        <path
           d="m 107.30714,240.67747 h 1.41817 v 5.94781 q 0,0.30692 0.14816,0.47625 0.14817,0.16933 0.42333,0.16933 0.127,0 0.27517,-0.0423 0.15875,-0.0423 0.29633,-0.10583 l 0.1905,1.07949 q -0.28575,0.13758 -0.66675,0.21167 -0.38099,0.0741 -0.68791,0.0741 -0.66675,0 -1.03716,-0.34925 -0.35984,-0.35983 -0.35984,-1.01599 z"
           style="font-style:normal;font-variant:normal;font-weight:bold;font-stretch:normal;font-family:Raleway;-inkscape-font-specification:'Raleway Bold';stroke-width:0.264583;fill:#000000"
           id="path2126" />
        <path
           d="m 113.24437,248.50911 q -0.66675,0 -1.2065,-0.22225 -0.53975,-0.23283 -0.92074,-0.62442 -0.381,-0.39158 -0.59267,-0.91016 -0.20108,-0.51858 -0.20108,-1.09008 0,-0.59266 0.20108,-1.11125 0.20108,-0.52916 0.58208,-0.92074 0.381,-0.40217 0.92075,-0.635 0.55033,-0.23283 1.22766,-0.23283 0.67733,0 1.2065,0.23283 0.53975,0.23283 0.91016,0.62441 0.381,0.39159 0.5715,0.91017 0.20108,0.51858 0.20108,1.07949 0,0.13759 -0.0106,0.26459 0,0.127 -0.0212,0.21166 h -4.28623 q 0.0318,0.32808 0.15875,0.58208 0.127,0.254 0.32808,0.43392 0.20108,0.17991 0.45508,0.27516 0.254,0.0952 0.52917,0.0952 0.42333,0 0.79374,-0.20108 0.381,-0.21166 0.51858,-0.55033 l 1.21708,0.33867 q -0.30691,0.63499 -0.98424,1.04774 -0.66675,0.40217 -1.59808,0.40217 z m 1.43933,-3.34433 q -0.0529,-0.62441 -0.46567,-0.99483 -0.40216,-0.38099 -0.98424,-0.38099 -0.28575,0 -0.53975,0.10583 -0.24342,0.0952 -0.43392,0.27516 -0.1905,0.17992 -0.3175,0.43392 -0.11641,0.254 -0.13758,0.56091 z"
           style="font-style:normal;font-variant:normal;font-weight:bold;font-stretch:normal;font-family:Raleway;-inkscape-font-specification:'Raleway Bold';stroke-width:0.264583;fill:#000000"
           id="path2128" />
        <path
           d="m 125.62682,248.40327 h -1.41816 v -3.11149 q 0,-0.66674 -0.23284,-0.97366 -0.22224,-0.30691 -0.62441,-0.30691 -0.42333,0 -0.79375,0.32808 -0.37041,0.3175 -0.52916,0.83608 v 3.2279 h -1.41816 v -3.11149 q 0,-0.66674 -0.23284,-0.97366 -0.22225,-0.30691 -0.62441,-0.30691 -0.41275,0 -0.79375,0.31749 -0.37041,0.3175 -0.52916,0.83608 v 3.23849 h -1.41817 v -5.54564 h 1.28058 v 1.02658 q 0.30692,-0.53975 0.83608,-0.8255 0.53975,-0.29633 1.22767,-0.29633 0.69849,0 1.07949,0.33866 0.381,0.33867 0.48683,0.83608 0.33867,-0.5715 0.85725,-0.86783 0.51858,-0.30691 1.18533,-0.30691 0.508,0 0.83608,0.1905 0.32808,0.19049 0.508,0.49741 0.17992,0.30692 0.24342,0.6985 0.0741,0.39158 0.0741,0.79375 z"
           style="font-style:normal;font-variant:normal;font-weight:bold;font-stretch:normal;font-family:Raleway;-inkscape-font-specification:'Raleway Bold';stroke-width:0.264583;fill:#000000"
           id="path2130" />
        <path
           d="m 129.43681,248.50911 q -0.66675,0 -1.2065,-0.22225 -0.53975,-0.23283 -0.92075,-0.62442 -0.381,-0.39158 -0.59266,-0.91016 -0.20109,-0.51858 -0.20109,-1.09008 0,-0.59266 0.20109,-1.11125 0.20108,-0.52916 0.58208,-0.92074 0.381,-0.40217 0.92075,-0.635 0.55033,-0.23283 1.22766,-0.23283 0.67733,0 1.20649,0.23283 0.53975,0.23283 0.91017,0.62441 0.381,0.39159 0.5715,0.91017 0.20108,0.51858 0.20108,1.07949 0,0.13759 -0.0106,0.26459 0,0.127 -0.0212,0.21166 h -4.28624 q 0.0317,0.32808 0.15875,0.58208 0.127,0.254 0.32809,0.43392 0.20108,0.17991 0.45508,0.27516 0.254,0.0952 0.52916,0.0952 0.42333,0 0.79375,-0.20108 0.381,-0.21166 0.51858,-0.55033 l 1.21708,0.33867 q -0.30692,0.63499 -0.98425,1.04774 -0.66674,0.40217 -1.59807,0.40217 z m 1.43932,-3.34433 q -0.0529,-0.62441 -0.46566,-0.99483 -0.40217,-0.38099 -0.98425,-0.38099 -0.28575,0 -0.53975,0.10583 -0.24341,0.0952 -0.43391,0.27516 -0.1905,0.17992 -0.3175,0.43392 -0.11642,0.254 -0.13758,0.56091 z"
           style="font-style:normal;font-variant:normal;font-weight:bold;font-stretch:normal;font-family:Raleway;-inkscape-font-specification:'Raleway Bold';stroke-width:0.264583;fill:#000000"
           id="path2132" />
        <path
           d="m 138.35852,248.40327 h -1.41817 v -3.11149 q 0,-0.66674 -0.23283,-0.97366 -0.23283,-0.30691 -0.64558,-0.30691 -0.21167,0 -0.43391,0.0847 -0.22225,0.0847 -0.42334,0.24342 -0.1905,0.14816 -0.34925,0.35983 -0.15875,0.21167 -0.23283,0.46566 v 3.23849 h -1.41816 v -5.54564 h 1.28058 v 1.02658 q 0.30691,-0.52917 0.889,-0.8255 0.58208,-0.29633 1.31233,-0.29633 0.51858,0 0.84666,0.1905 0.32808,0.19049 0.508,0.49741 0.17991,0.30692 0.24341,0.6985 0.0741,0.39158 0.0741,0.79375 z"
           style="font-style:normal;font-variant:normal;font-weight:bold;font-stretch:normal;font-family:Raleway;-inkscape-font-specification:'Raleway Bold';stroke-width:0.264583;fill:#000000"
           id="path2134" />
        <path
           d="m 142.86697,248.11753 q -0.28575,0.127 -0.6985,0.25399 -0.41275,0.127 -0.86783,0.127 -0.29633,0 -0.56091,-0.0741 -0.254,-0.0741 -0.45509,-0.23283 -0.1905,-0.16933 -0.30691,-0.42333 -0.11642,-0.26459 -0.11642,-0.635 v -3.18557 h -0.73025 v -1.09008 h 0.73025 v -1.79917 h 1.41816 v 1.79917 h 1.16417 v 1.09008 h -1.16417 v 2.70932 q 0,0.29633 0.14817,0.42333 0.15875,0.11642 0.381,0.11642 0.22225,0 0.43391,-0.0741 0.21167,-0.0741 0.33867,-0.127 z"
           style="font-style:normal;font-variant:normal;font-weight:bold;font-stretch:normal;font-family:Raleway;-inkscape-font-specification:'Raleway Bold';stroke-width:0.264583;fill:#000000"
           id="path2136" />
      </g>
      <g
         id="g863"
         transform="matrix(1.5348368,0,0,1.5348368,-17.818694,2.4912001)"
         style="fill:#000000" />
    </g>
  </g>
</svg>
